%TF.GenerationSoftware,KiCad,Pcbnew,(6.0.5-0)*%
%TF.CreationDate,2022-05-25T22:01:54-07:00*%
%TF.ProjectId,pool-piano-synth,706f6f6c-2d70-4696-916e-6f2d73796e74,v1*%
%TF.SameCoordinates,Original*%
%TF.FileFunction,Soldermask,Top*%
%TF.FilePolarity,Negative*%
%FSLAX46Y46*%
G04 Gerber Fmt 4.6, Leading zero omitted, Abs format (unit mm)*
G04 Created by KiCad (PCBNEW (6.0.5-0)) date 2022-05-25 22:01:54*
%MOMM*%
%LPD*%
G01*
G04 APERTURE LIST*
G04 Aperture macros list*
%AMRoundRect*
0 Rectangle with rounded corners*
0 $1 Rounding radius*
0 $2 $3 $4 $5 $6 $7 $8 $9 X,Y pos of 4 corners*
0 Add a 4 corners polygon primitive as box body*
4,1,4,$2,$3,$4,$5,$6,$7,$8,$9,$2,$3,0*
0 Add four circle primitives for the rounded corners*
1,1,$1+$1,$2,$3*
1,1,$1+$1,$4,$5*
1,1,$1+$1,$6,$7*
1,1,$1+$1,$8,$9*
0 Add four rect primitives between the rounded corners*
20,1,$1+$1,$2,$3,$4,$5,0*
20,1,$1+$1,$4,$5,$6,$7,0*
20,1,$1+$1,$6,$7,$8,$9,0*
20,1,$1+$1,$8,$9,$2,$3,0*%
G04 Aperture macros list end*
%ADD10RoundRect,0.050800X0.850000X-0.850000X0.850000X0.850000X-0.850000X0.850000X-0.850000X-0.850000X0*%
%ADD11O,1.801600X1.801600*%
%ADD12RoundRect,0.050800X-1.500000X-1.500000X1.500000X-1.500000X1.500000X1.500000X-1.500000X1.500000X0*%
%ADD13C,3.101600*%
%ADD14C,1.701600*%
%ADD15O,1.701600X1.701600*%
%ADD16RoundRect,0.050800X-0.850000X-0.850000X0.850000X-0.850000X0.850000X0.850000X-0.850000X0.850000X0*%
%ADD17RoundRect,0.050800X0.800000X0.800000X-0.800000X0.800000X-0.800000X-0.800000X0.800000X-0.800000X0*%
%ADD18RoundRect,0.050800X0.900000X0.900000X-0.900000X0.900000X-0.900000X-0.900000X0.900000X-0.900000X0*%
%ADD19C,1.901600*%
G04 APERTURE END LIST*
D10*
%TO.C,VCC*%
X136286000Y-84455000D03*
D11*
X138826000Y-84455000D03*
X141366000Y-84455000D03*
%TD*%
D12*
%TO.C,MIDI IN*%
X132080000Y-76835000D03*
D13*
X137160000Y-76835000D03*
%TD*%
D14*
%TO.C,R5*%
X143510000Y-117094000D03*
D15*
X135890000Y-117094000D03*
%TD*%
D14*
%TO.C,R2*%
X131191000Y-100330000D03*
D15*
X131191000Y-113030000D03*
%TD*%
D14*
%TO.C,R1*%
X131191000Y-96393000D03*
D15*
X131191000Y-83693000D03*
%TD*%
D10*
%TO.C,GND*%
X145938000Y-84455000D03*
D11*
X148478000Y-84455000D03*
X151018000Y-84455000D03*
%TD*%
D16*
%TO.C,TEENSY*%
X125730000Y-58420000D03*
D11*
X125730000Y-60960000D03*
X125730000Y-63500000D03*
X125730000Y-66040000D03*
X125730000Y-68580000D03*
X125730000Y-71120000D03*
X125730000Y-73660000D03*
X125730000Y-76200000D03*
X125730000Y-78740000D03*
X125730000Y-81280000D03*
X125730000Y-83820000D03*
X125730000Y-86360000D03*
X125730000Y-88900000D03*
X125730000Y-91440000D03*
X125730000Y-93980000D03*
X125730000Y-96520000D03*
X125730000Y-99060000D03*
X125730000Y-101600000D03*
X125730000Y-104140000D03*
X125730000Y-106680000D03*
X125730000Y-109220000D03*
X125730000Y-111760000D03*
X125730000Y-114300000D03*
X125730000Y-116840000D03*
%TD*%
D17*
%TO.C,D1*%
X143510000Y-90434000D03*
D15*
X135890000Y-90434000D03*
%TD*%
D12*
%TO.C,POWER*%
X144780000Y-76835000D03*
D13*
X149860000Y-76835000D03*
%TD*%
D16*
%TO.C,ESP32*%
X156210000Y-68580000D03*
D11*
X156210000Y-71120000D03*
X156210000Y-73660000D03*
X156210000Y-76200000D03*
X156210000Y-78740000D03*
X156210000Y-81280000D03*
X156210000Y-83820000D03*
X156210000Y-86360000D03*
X156210000Y-88900000D03*
X156210000Y-91440000D03*
X156210000Y-93980000D03*
X156210000Y-96520000D03*
X156210000Y-99060000D03*
X156210000Y-101600000D03*
X156210000Y-104140000D03*
X156210000Y-106680000D03*
X156210000Y-109220000D03*
X156210000Y-111760000D03*
X156210000Y-114300000D03*
X156210000Y-116840000D03*
%TD*%
D18*
%TO.C,D3*%
X150876000Y-106934000D03*
D19*
X148336000Y-106934000D03*
%TD*%
D17*
%TO.C,U1*%
X143510000Y-102616000D03*
D15*
X143510000Y-100076000D03*
X143510000Y-97536000D03*
X143510000Y-94996000D03*
X135890000Y-94996000D03*
X135890000Y-97536000D03*
X135890000Y-100076000D03*
X135890000Y-102616000D03*
%TD*%
D18*
%TO.C,D2*%
X150876000Y-98298000D03*
D19*
X148336000Y-98298000D03*
%TD*%
D14*
%TO.C,C1*%
X146685000Y-90805000D03*
X151685000Y-90805000D03*
%TD*%
%TO.C,R4*%
X143510000Y-112278000D03*
D15*
X135890000Y-112278000D03*
%TD*%
D14*
%TO.C,R3*%
X143510000Y-107452000D03*
D15*
X135890000Y-107452000D03*
%TD*%
D18*
%TO.C,D4*%
X150881000Y-115316000D03*
D19*
X148341000Y-115316000D03*
%TD*%
M02*
