M48
; DRILL file {KiCad (6.0.5-0)} date Wednesday, May 25, 2022 at 10:01:56 PM
; FORMAT={-:-/ absolute / inch / decimal}
; #@! TF.CreationDate,2022-05-25T22:01:56-07:00
; #@! TF.GenerationSoftware,Kicad,Pcbnew,(6.0.5-0)
; #@! TF.FileFunction,Plated,1,2,PTH
FMAT,2
INCH
; #@! TA.AperFunction,Plated,PTH,ComponentDrill
T1C0.0315
; #@! TA.AperFunction,Plated,PTH,ComponentDrill
T2C0.0354
; #@! TA.AperFunction,Plated,PTH,ComponentDrill
T3C0.0394
; #@! TA.AperFunction,Plated,PTH,ComponentDrill
T4C0.0598
%
G90
G05
T1
X5.165Y-3.295
X5.165Y-3.795
X5.165Y-3.95
X5.165Y-4.45
X5.35Y-3.5604
X5.35Y-3.74
X5.35Y-3.84
X5.35Y-3.94
X5.35Y-4.04
X5.35Y-4.2304
X5.35Y-4.4204
X5.35Y-4.61
X5.65Y-3.5604
X5.65Y-3.74
X5.65Y-3.84
X5.65Y-3.94
X5.65Y-4.04
X5.65Y-4.2304
X5.65Y-4.4204
X5.65Y-4.61
X5.775Y-3.575
X5.9719Y-3.575
T2
X5.84Y-3.87
X5.84Y-4.21
X5.8402Y-4.54
X5.94Y-3.87
X5.94Y-4.21
X5.9402Y-4.54
T3
X4.95Y-2.3
X4.95Y-2.4
X4.95Y-2.5
X4.95Y-2.6
X4.95Y-2.7
X4.95Y-2.8
X4.95Y-2.9
X4.95Y-3.0
X4.95Y-3.1
X4.95Y-3.2
X4.95Y-3.3
X4.95Y-3.4
X4.95Y-3.5
X4.95Y-3.6
X4.95Y-3.7
X4.95Y-3.8
X4.95Y-3.9
X4.95Y-4.0
X4.95Y-4.1
X4.95Y-4.2
X4.95Y-4.3
X4.95Y-4.4
X4.95Y-4.5
X4.95Y-4.6
X5.3656Y-3.325
X5.4656Y-3.325
X5.5656Y-3.325
X5.7456Y-3.325
X5.8456Y-3.325
X5.9456Y-3.325
X6.15Y-2.7
X6.15Y-2.8
X6.15Y-2.9
X6.15Y-3.0
X6.15Y-3.1
X6.15Y-3.2
X6.15Y-3.3
X6.15Y-3.4
X6.15Y-3.5
X6.15Y-3.6
X6.15Y-3.7
X6.15Y-3.8
X6.15Y-3.9
X6.15Y-4.0
X6.15Y-4.1
X6.15Y-4.2
X6.15Y-4.3
X6.15Y-4.4
X6.15Y-4.5
X6.15Y-4.6
T4
X5.2Y-3.025
X5.4Y-3.025
X5.7Y-3.025
X5.9Y-3.025
T0
M30
